<?xml version="1.0" encoding="UTF-8"?>
<svg id="White" xmlns="http://www.w3.org/2000/svg" viewBox="0 0 1000 224.82">
  <defs>
    <style>
      .cls-1 {
        fill: #fff;
      }
    </style>
  </defs>
  <g>
    <path class="cls-1" d="M577.71,81.91v11.94h-16.21v49.24h-14.9v-49.24h-16.21v-11.94h47.32Z"/>
    <path class="cls-1" d="M616.39,143.09l-12.72-23.09h-3.57v23.09h-14.9v-61.17h25.01c4.82,0,8.93.84,12.33,2.53,3.4,1.69,5.94,4,7.62,6.93,1.68,2.93,2.53,6.2,2.53,9.8,0,4.07-1.15,7.7-3.44,10.89-2.29,3.2-5.68,5.46-10.15,6.8l14.12,24.23h-16.82ZM600.1,109.45h9.24c2.73,0,4.78-.67,6.14-2,1.36-1.34,2.05-3.23,2.05-5.67s-.68-4.15-2.05-5.49c-1.37-1.34-3.41-2-6.14-2h-9.24v15.16Z"/>
    <path class="cls-1" d="M679.9,132.28h-22.83l-3.66,10.8h-15.6l22.14-61.17h17.25l22.13,61.17h-15.77l-3.66-10.8ZM676.06,120.78l-7.58-22.39-7.5,22.39h15.08Z"/>
    <path class="cls-1" d="M720.96,81.91v61.17h-14.9v-61.17h14.9Z"/>
    <path class="cls-1" d="M785,143.09h-14.9l-24.92-37.73v37.73h-14.9v-61.17h14.9l24.92,37.91v-37.91h14.9v61.17Z"/>
    <path class="cls-1" d="M809.29,81.91v61.17h-14.9v-61.17h14.9Z"/>
    <path class="cls-1" d="M872.73,143.09h-14.9l-24.92-37.73v37.73h-14.9v-61.17h14.9l24.92,37.91v-37.91h14.9v61.17Z"/>
    <path class="cls-1" d="M921.48,101.46c-1.08-2-2.64-3.52-4.66-4.58-2.03-1.06-4.41-1.59-7.14-1.59-4.74,0-8.53,1.56-11.38,4.66-2.85,3.11-4.28,7.26-4.28,12.45,0,5.53,1.5,9.86,4.49,12.96,3,3.11,7.12,4.66,12.36,4.66,3.59,0,6.63-.91,9.11-2.74,2.48-1.82,4.29-4.45,5.43-7.87h-18.56v-10.78h31.83v13.6c-1.08,3.65-2.92,7.04-5.52,10.18-2.6,3.14-5.89,5.68-9.88,7.62-3.99,1.94-8.5,2.91-13.52,2.91-5.93,0-11.22-1.3-15.87-3.89-4.65-2.6-8.27-6.2-10.86-10.82-2.6-4.62-3.89-9.89-3.89-15.83s1.3-11.22,3.89-15.87c2.6-4.65,6.2-8.27,10.82-10.87,4.62-2.6,9.9-3.89,15.83-3.89,7.19,0,13.25,1.74,18.18,5.22,4.93,3.48,8.2,8.3,9.8,14.46h-16.17Z"/>
  </g>
  <g>
    <path class="cls-1" d="M198.84,131.56h19.56v11.53h-34.49v-61.3h14.93v49.77Z"/>
    <path class="cls-1" d="M267.62,132.26h-22.88l-3.67,10.83h-15.63l22.18-61.3h17.29l22.18,61.3h-15.81l-3.67-10.83ZM263.78,120.73l-7.6-22.44-7.51,22.44h15.11Z"/>
    <path class="cls-1" d="M326.24,81.79v11.96h-16.24v49.34h-14.93v-49.34h-16.24v-11.96h47.42Z"/>
    <path class="cls-1" d="M377.93,81.79v11.96h-16.24v49.34h-14.93v-49.34h-16.24v-11.96h47.42Z"/>
    <path class="cls-1" d="M400,81.79v61.3h-14.93v-61.3h14.93Z"/>
    <path class="cls-1" d="M410.42,96.18c2.62-4.73,6.26-8.43,10.94-11.07,4.68-2.64,9.98-3.97,15.91-3.97,7.26,0,13.48,1.92,18.65,5.75,5.17,3.84,8.63,9.07,10.37,15.69h-16.39c-1.22-2.56-2.95-4.5-5.19-5.84-2.24-1.34-4.78-2-7.63-2-4.59,0-8.31,1.6-11.16,4.79-2.85,3.2-4.27,7.47-4.27,12.81s1.42,9.62,4.27,12.81c2.85,3.2,6.57,4.79,11.16,4.79,2.85,0,5.39-.67,7.63-2,2.24-1.34,3.97-3.28,5.19-5.84h16.39c-1.74,6.62-5.2,11.84-10.37,15.65-5.17,3.81-11.39,5.71-18.65,5.71-5.93,0-11.23-1.32-15.91-3.97-4.68-2.64-8.32-6.32-10.94-11.03-2.62-4.71-3.92-10.08-3.92-16.13s1.31-11.43,3.92-16.17Z"/>
    <path class="cls-1" d="M487.34,93.75v12.4h20v11.53h-20v13.45h22.62v11.96h-37.55v-61.3h37.55v11.96h-22.62Z"/>
  </g>
  <path class="cls-1" d="M126.51,113.89l-12.64,12.64c-.81.81-2.13.81-2.94,0l-12.64-12.64c-.81-.81-.81-2.13,0-2.94l12.64-12.64c.81-.81,2.13-.81,2.94,0l12.64,12.64c.81.81.81,2.13,0,2.94ZM144.69,92.77l-12.64-12.64c-.81-.81-2.13-.81-2.94,0l-12.64,12.64c-.81.81-.81,2.13,0,2.94l12.64,12.64c.81.81,2.13.81,2.94,0l12.64-12.64c.81-.81.81-2.13,0-2.94ZM144.7,129.11l-12.64-12.64c-.81-.81-2.13-.81-2.94,0l-12.64,12.64c-.81.81-.81,2.13,0,2.94l12.64,12.64c.81.81,2.13.81,2.94,0l12.64-12.64c.81-.81.81-2.13,0-2.94ZM108.35,92.76l-12.64-12.64c-.81-.81-2.13-.81-2.94,0l-12.64,12.64c-.81.81-.81,2.13,0,2.94l12.64,12.64c.81.81,2.13.81,2.94,0l12.64-12.64c.81-.81.81-2.13,0-2.94ZM126.51,74.6l-12.64-12.64c-.81-.81-2.13-.81-2.94,0l-12.64,12.64c-.81.81-.81,2.13,0,2.94l12.64,12.64c.81.81,2.13.81,2.94,0l12.64-12.64c.81-.81.81-2.13,0-2.94ZM162.86,110.94l-12.64-12.64c-.81-.81-2.13-.81-2.94,0l-12.64,12.64c-.81.81-.81,2.13,0,2.94l12.64,12.64c.81.81,2.13.81,2.94,0l12.64-12.64c.81-.81.81-2.13,0-2.94ZM108.34,129.12l-12.64-12.64c-.86-.77-2.17-.77-2.99.04l-12.64,12.64c-.81.81-.81,2.13,0,2.94l12.64,12.64c.81.81,2.13.81,2.94,0l12.64-12.64c.81-.81.81-2.13.04-2.99ZM90.12,110.99l-12.64-12.64c-.81-.81-2.13-.81-2.94,0l-12.64,12.64c-.81.81-.81,2.13,0,2.94l12.64,12.64c.81.81,2.13.81,2.94,0l12.64-12.64c.81-.81.81-2.13,0-2.94ZM126.47,147.33l-12.64-12.64c-.81-.81-2.13-.81-2.94,0l-12.64,12.64c-.81.81-.81,2.13,0,2.94l12.64,12.64c.81.81,2.13.81,2.94,0l12.64-12.64c.81-.81.81-2.13,0-2.94Z"/>
</svg>